# xmcd CD database file
#
# Track frame offsets:
#	150
#	11600
#	22499
#	34027
#	45162
#	61079
#	72999
#	83289
#	92231
#	102592
#	115933
#
# Disc length: 1723 seconds
#
# Revision: 0
# Processed by: cddbd v1.5.2PL0 Copyright (c) Steve Scherf et al.
# Submitted via: Feurio! 1.68 - http://www.feurio.com
#
DISCID=8506b90b
DTITLE=Johnny Cash - Destination Victoria Station
DYEAR=1900
DGENRE=
TTITLE0=Casey Jones
TTITLE1=Hey Porter
TTITLE2=John Henry
TTITLE3=Wabash Cannon Ball
TTITLE4=City of New Orleans
TTITLE5=Folsom Prison Blues (Live)
TTITLE6=Crystal Chandeliers and Burgundy
TTITLE7=Wreck of the Old '97
TTITLE8=Waiting for a Train
TTITLE9=Orange Blossom Special
TTITLE10=Texas 1947
EXTD=
EXTT0=
EXTT1=
EXTT2=
EXTT3=
EXTT4=
EXTT5=
EXTT6=
EXTT7=
EXTT8=
EXTT9=
EXTT10=
PLAYORDER=
